<svg width="115" height="11" viewBox="0 0 115 11" fill="none" xmlns="http://www.w3.org/2000/svg">
<path d="M113.799 9.01465C113.466 9.01465 113.189 9.29246 113.189 9.66654C113.189 10.0406 113.466 10.3178 113.799 10.3178C114.132 10.3178 114.409 10.04 114.409 9.66654C114.409 9.29182 114.132 9.01465 113.799 9.01465ZM91.7273 10.2764H94.5281V10.027L94.2231 9.95727C93.9459 9.88814 93.8206 9.73567 93.8206 9.34738V5.57628H94.4725C94.8743 5.57628 95.0824 5.67319 95.1102 6.51954L95.1793 8.29364C95.2348 9.88814 95.6923 10.332 96.4695 10.332C97.259 10.332 97.467 9.79123 97.467 9.02822V8.70971H97.1756V8.94488C97.1756 9.4585 97.1065 9.81901 96.9127 9.81901C96.7324 9.81901 96.7182 9.6801 96.6769 9.04243L96.5935 7.82266C96.483 6.18617 96.275 5.61763 95.0688 5.39603C96.2195 5.09109 96.9262 4.24538 96.9262 3.03918C96.9262 1.47246 95.6923 0.72367 94.5138 0.72367H89.7866V0.973052L90.0502 1.02861C90.5489 1.13974 90.5631 1.40333 90.5631 2.5262V8.04361C90.5631 9.2776 90.2162 9.87392 89.4254 9.87392C88.7193 9.87392 88.331 9.52763 88.331 8.18252V1.62493C88.331 1.23729 88.455 1.12617 88.76 1.05639L89.1347 0.973052V0.72367H86.2371V0.973052L86.542 1.05704C86.8192 1.13974 86.9161 1.25086 86.9161 1.6385V8.08626C86.9161 9.5412 87.7624 10.3456 89.052 10.3456C90.3409 10.3456 90.9786 9.5412 90.9786 8.04426V2.02679C90.9786 1.27864 91.131 1.01505 91.7409 1.01505C92.2261 1.01505 92.4348 1.18109 92.4348 1.6385V9.34738C92.4348 9.73502 92.3101 9.87392 92.0323 9.9437L91.7273 10.027V10.2764ZM110.333 1.6385C110.333 1.25086 110.458 1.12617 110.735 1.06996L111.109 0.987266V0.72367H108.226V0.973052L108.531 1.05704C108.808 1.13974 108.933 1.25086 108.933 1.6385V9.40294C108.933 9.77766 108.78 9.98505 108.35 9.98505C107.851 9.98505 107.782 9.81901 107.602 9.00109L105.827 0.695889H105.273L103.581 8.73749C103.387 9.63811 103.29 9.84679 102.916 9.95727L102.68 10.027V10.2764H104.662V10.027L104.372 9.97148C103.955 9.88749 103.845 9.66654 104.053 8.6128L105.051 3.46881L106.146 8.91774C106.312 9.70788 106.299 9.86036 105.702 9.97083L105.411 10.027V10.2764H112.759V7.11522H112.496C112.358 8.57081 112.066 9.9437 110.888 9.9437H110.333V1.6385ZM106.007 7.69732V7.32325H104.136L104.081 7.69797H106.007V7.69732ZM98.2714 1.80519V8.43255C98.2714 9.43072 98.2714 9.9017 97.772 9.98505L97.5226 10.027V10.2764H99.5603V10.027C98.6732 9.9017 98.6732 9.59676 98.6732 8.51524V2.22125L98.3405 1.91631L101.738 10.2764H102.32V2.5669C102.32 1.42982 102.32 1.18044 102.874 1.02797L103.068 0.972406V0.72367H100.975V0.973052L101.21 1.02861C101.917 1.15331 101.917 1.43111 101.917 2.48485V7.30904L102.056 7.26769L99.4776 0.72367H97.4948V0.973052L97.6886 1.02861C97.9109 1.09839 98.0355 1.34777 98.2714 1.80519ZM93.8206 1.05639H94.3756C94.9299 1.05639 95.4429 1.4169 95.4429 3.21943C95.4429 5.06331 95.0546 5.24356 94.2787 5.24356H93.8206V1.05704V1.05639ZM84.5877 5.41024C84.5877 9.41651 84.2549 9.98505 83.5339 9.98505C82.8129 9.98505 82.4938 9.41651 82.4938 5.43738C82.4938 1.58359 82.8407 1.02861 83.5339 1.02861C84.2549 1.02861 84.5877 1.58359 84.5877 5.41024ZM86.0988 5.49294C86.0988 2.84536 85.2531 0.654541 83.5339 0.654541C81.8005 0.654541 80.9826 2.84471 80.9826 5.49359C80.9826 8.15538 81.8283 10.3456 83.5339 10.3456C85.2945 10.3456 86.0988 8.15474 86.0988 5.49294ZM80.1647 1.6385C80.1647 1.25086 80.2616 1.12617 80.5388 1.05704L80.8437 0.973052V0.72367H77.9745V0.973052L78.3208 1.05704C78.598 1.12617 78.7504 1.22308 78.7504 1.62558V8.29364C78.7504 9.22269 78.6671 9.97148 77.9745 9.97148C77.5307 9.97148 77.1979 9.62454 77.2115 9.37516C77.2529 8.94488 77.9745 8.97331 78.0294 8.27943C78.0714 7.78066 77.7523 7.57263 77.4609 7.53128C77.0313 7.47572 76.5047 7.83623 76.4905 8.55724C76.4763 9.48564 77.0868 10.332 78.1263 10.332C79.2776 10.332 80.1647 9.55541 80.1647 8.07139V1.6385ZM33.8584 1.6385C33.8584 1.25086 33.9831 1.12617 34.2603 1.06996L34.635 0.987266V0.72367H31.751V0.973052L32.0559 1.05704C32.3337 1.13974 32.4584 1.25086 32.4584 1.6385V9.40294C32.4584 9.77766 32.3053 9.98505 31.8757 9.98505C31.3769 9.98505 31.2936 9.81901 31.1133 9.00109L29.3379 0.695889H28.7836L27.0922 8.73749C26.8984 9.63811 26.8008 9.84679 26.4267 9.95727L26.1909 10.027V10.2764H28.1737V10.027L27.8823 9.97148C27.4663 9.88749 27.3551 9.66654 27.5632 8.6128L28.5613 3.44103L29.6571 8.91774C29.8095 9.70788 29.8095 9.86036 29.2132 9.97083L28.9225 10.027V10.2764H36.2838V7.11522H36.0208C35.8819 8.57081 35.5905 9.9437 34.4121 9.9437H33.8578V1.6385H33.8584ZM72.4558 1.05704H72.7614C73.6213 1.05704 73.912 2.42929 74.0089 3.88488H74.2725V0.72367H69.2397V3.88488H69.5033C69.6002 2.42929 69.8916 1.05639 70.7508 1.05639H71.0558V9.34738C71.0558 9.73502 70.9311 9.87392 70.6539 9.9437L70.2934 10.027V10.2764H73.2879V10.027L72.8583 9.93013C72.5947 9.86036 72.4558 9.77701 72.4558 9.34738V1.05639V1.05704ZM66.1205 5.47937L66.5501 5.49294C67.1742 5.50715 67.3538 5.74297 67.4791 7.25412H67.7421V3.39968H67.4791C67.3267 4.60589 67.16 5.11822 66.5637 5.13243L66.1205 5.14665V1.05704H67.0766C68.1446 1.05704 68.3804 2.40086 68.5329 3.88488H68.7958V0.72367H64.013V0.973052L64.3179 1.05704C64.6365 1.13974 64.7198 1.3342 64.7198 1.65272V9.34738C64.7198 9.73502 64.5957 9.87392 64.3179 9.9437L64.013 10.027V10.2764H68.9347V7.11522H68.6711C68.5051 8.55724 68.3248 9.9437 67.0766 9.9437H66.1205V5.47937ZM60.8938 5.47937L61.3234 5.49294C61.9469 5.50715 62.1271 5.74297 62.2525 7.25412H62.5154V3.39968H62.2525C62.1 4.60589 61.9333 5.11822 61.3376 5.13243L60.8931 5.14665V1.05704H61.85C62.9179 1.05704 63.1531 2.42929 63.3055 3.88488H63.5691V0.72367H58.6474V0.973052L59.0913 1.05704C59.4098 1.13974 59.4931 1.3342 59.4931 1.65272V9.34738C59.4931 9.73502 59.3684 9.87392 59.0913 9.9437L58.7863 10.027V10.2764H63.708V7.11522H63.4438C63.2778 8.55724 63.0969 9.9437 61.8493 9.9437H60.8931L60.8938 5.47937ZM55.1955 1.05639H55.6115C56.1659 1.05639 56.6788 1.4169 56.6788 3.21943C56.6788 5.03552 56.2912 5.24356 55.514 5.24356H55.1955V1.05704V1.05639ZM53.1022 10.2758H55.9023V10.027L55.5973 9.95727C55.3195 9.88814 55.1955 9.73567 55.1955 9.34738V5.57628H55.7084C56.1103 5.57628 56.3183 5.74297 56.3461 6.51954L56.4152 8.29364C56.4708 9.88814 56.9282 10.332 57.7048 10.332C58.4949 10.332 58.703 9.79123 58.703 9.02822V8.70971H58.4122V8.94488C58.4122 9.4585 58.3425 9.81901 58.1486 9.81901C57.9677 9.81901 57.9542 9.6801 57.9128 9.04243L57.8288 7.82266C57.719 6.14482 57.4968 5.61763 56.3041 5.39603C57.4554 5.09109 58.1622 4.24538 58.1622 3.03918C58.1622 1.47246 56.9282 0.72367 55.7498 0.72367H53.1016V0.973052L53.4065 1.05704C53.6843 1.13974 53.809 1.25086 53.809 1.6385V9.34738C53.809 9.73502 53.6843 9.87392 53.4065 9.9437L53.1016 10.027V10.2764L53.1022 10.2758ZM50.9799 1.05704H51.2848C52.1441 1.05704 52.4355 2.42993 52.533 3.88552H52.796V0.72367H47.7631V3.88488H48.0267C48.1236 2.42929 48.415 1.05639 49.2749 1.05639H49.5798V9.34738C49.5798 9.73502 49.4545 9.87392 49.178 9.9437L48.8168 10.027V10.2764H51.7422V10.027L51.3817 9.94305C51.0219 9.86036 50.9799 9.58319 50.9799 9.34738V1.05639V1.05704ZM47.7773 7.79552C47.7773 4.95283 44.6581 4.20404 44.6581 2.13856C44.6581 1.69471 44.8241 1.02926 45.5174 1.02926C46.5156 1.02926 46.8903 2.31881 47.0563 3.88552H47.3199V0.72367H47.1532C47.0841 1.02861 46.9594 1.16752 46.7791 1.16752C46.46 1.16752 46.2939 0.668108 45.5316 0.668108C44.3532 0.668108 43.5482 1.65272 43.5482 2.94227C43.5482 5.28491 46.6687 6.26951 46.6687 8.43255C46.6687 9.41651 46.2106 9.97148 45.5865 9.97148C44.6581 9.97148 44.0476 8.8764 43.8815 7.11522H43.6179V10.2764H43.7846C43.9229 9.81901 44.1031 9.77701 44.2563 9.77701C44.5192 9.77701 44.7964 10.332 45.6001 10.332C46.8341 10.332 47.7773 9.26404 47.7773 7.79423V7.79552ZM38.6968 1.63786C38.6968 1.25022 38.8215 1.12552 39.0987 1.06932L39.4734 0.98662V0.72367H36.5894V0.973052L36.8943 1.05704C37.1721 1.13974 37.2968 1.25086 37.2968 1.6385V9.34738C37.2968 9.73502 37.1721 9.87392 36.8943 9.9437L36.5894 10.027V10.2764H41.1235V7.11522H40.8599C40.721 8.57081 40.4302 9.9437 39.2512 9.9437H38.6968V1.6385V1.63786ZM29.5188 7.69732V7.32325H27.6472L27.5916 7.69797H29.5188V7.69732ZM21.5056 10.3042H22.0742L23.3631 3.48302H23.1693L24.5829 10.3042H25.0823L26.7737 2.2626C26.9546 1.4169 27.0515 1.12552 27.3836 1.04283L27.6472 0.973052V0.72367H25.6922V0.973052L25.9835 1.02861C26.3996 1.11196 26.4965 1.36134 26.3027 2.38729L25.207 7.78066H25.3736L24.2643 2.09656C24.1532 1.55581 24.0841 1.11196 24.5422 1.02861L24.8464 0.973052V0.72367H22.1711V0.973052L22.3513 1.01505C22.6285 1.08418 22.6698 1.25086 22.781 1.77741L23.2106 3.84353L23.1273 2.59533L22.1711 7.64176H22.2958L21.1729 2.09656C21.0476 1.52802 21.0062 1.09839 21.4501 1.01505L21.6581 0.973052V0.72367H18.9265V0.973052L19.1901 1.04283C19.4395 1.11196 19.5778 1.23665 19.7445 1.99901L21.5056 10.3042ZM14.1017 5.47937L14.532 5.49294C15.1554 5.50715 15.3357 5.74297 15.4604 7.25412H15.724V3.39968H15.4604C15.3079 4.60589 15.1419 5.11822 14.5456 5.13243L14.1017 5.14665V1.05704H15.0585C16.1258 1.05704 16.3616 2.42929 16.5141 3.88488H16.7777V0.72367H11.9949V0.973052L12.2998 1.05704C12.6183 1.13974 12.7017 1.3342 12.7017 1.65272V9.34738C12.7017 9.73502 12.577 9.87392 12.2998 9.9437L11.9949 10.027V10.2764H16.9166V7.11522H16.653C16.4863 8.55724 16.3061 9.9437 15.0585 9.9437H14.1023L14.1017 5.47937ZM5.38173 10.2764H8.22443V10.027L7.90527 9.95727C7.65589 9.9017 7.4892 9.73567 7.4892 9.34738V5.56272H9.58246V9.34738C9.58246 9.73502 9.41642 9.9017 9.16704 9.95727L8.84788 10.027V10.2764H11.6906V10.027L11.385 9.94305C11.1078 9.87392 10.9831 9.72145 10.9831 9.33317V1.63915C10.9831 1.25151 11.1078 1.12682 11.385 1.05769L11.6899 0.973698V0.72367H8.84788V0.973052L9.16704 1.05704C9.40221 1.12617 9.58246 1.22308 9.58246 1.62558V5.188H7.4892V1.62493C7.4892 1.23729 7.64167 1.12617 7.90527 1.05639L8.22443 0.973052V0.72367H5.38173V0.973052L5.68667 1.05704C5.96448 1.13974 6.08917 1.25086 6.08917 1.6385V9.34738C6.08917 9.73502 5.96448 9.87392 5.68667 9.9437L5.38173 10.027V10.2764ZM3.26004 1.05704H3.56499C4.42426 1.05639 4.71628 2.42864 4.81319 3.88488H5.07614V0.72367H0.0432739V3.88488H0.306869C0.40378 2.42929 0.695156 1.05639 1.55507 1.05639H1.86002V9.34738C1.86002 9.73502 1.73532 9.87392 1.45752 9.9437L1.09701 10.027V10.2764H4.09218V10.027L3.66254 9.93013C3.39895 9.86036 3.26004 9.77701 3.26004 9.34738V1.05639V1.05704Z" fill="#555555"/>
</svg>
