<svg width="56" height="15" viewBox="0 0 56 15" fill="none" xmlns="http://www.w3.org/2000/svg">
<path d="M16.9294 0.529687C13.726 0.553125 11.1047 4.11375 11.1047 7.21969C11.1047 10.4888 13.0266 14.4759 16.9294 14.4628C20.8331 14.4506 22.86 10.1578 22.86 7.21969C22.86 3.97594 20.1338 0.507187 16.9294 0.529687ZM16.9294 0.651562C19.6106 0.651562 20.3353 3.61406 20.3353 7.21969C20.3353 11.9794 19.4625 14.3259 16.9294 14.3222C14.3972 14.3175 13.5731 12.3966 13.5731 7.21969C13.5731 3.97781 14.2481 0.651562 16.9294 0.651562ZM23.9175 7.30781C23.9034 3.77344 26.7319 0.642187 29.1263 0.4875C29.9916 0.426562 31.1035 0.822187 31.7522 1.10438C32.2238 1.30969 33.1866 1.0125 33.3572 0.46875H33.45V5.28281H33.3563C33.3563 5.0775 32.4656 0.608437 29.1263 0.608437C26.6606 0.608437 26.4225 4.94438 26.4225 7.30781C26.4225 9.67125 26.4947 14.3494 29.3719 14.3494C30.7659 14.3494 31.7981 13.74 32.0653 12.5063V8.75438H30.8953V8.595H35.431V8.75438H34.3125V14.2387H34.2206C34.2206 14.2387 34.0388 13.4475 33.1163 13.4513C31.9369 13.4541 30.8241 14.4788 29.4685 14.4656C25.8825 14.4328 23.9325 10.8422 23.9184 7.30781H23.9175ZM2.30814 1.00406H0.895325V0.844688H5.84251V1.00406H4.60314L8.13751 10.6041C9.24376 7.20094 10.0988 4.68469 11.2519 1.00406H10.0238V0.844688H12.6366V1.00406H11.4459L7.15033 14.3972L2.30814 1.00406ZM36.1238 11.1187L36.1013 0.989062H34.7569V0.837187H39.7088V0.989062H38.3653L38.3953 12.0956C38.6935 13.3669 39.2222 14.3325 41.0288 14.3456C42.8344 14.3606 44.0625 13.2769 44.5191 11.7975V0.988125H42.9816V0.842812H55.5675L55.5938 5.70469H55.4728C55.2394 2.565 54.0281 1.37906 51.9094 1.03312C51.18 0.913125 50.416 1.00219 49.4485 0.994687V7.20094C50.2903 7.26562 51.1875 7.21219 51.7922 6.69281C52.3416 6.22125 52.4972 5.13 52.5375 4.68656H52.6434V10.0903H52.5281C52.4953 10.0903 52.4513 8.73469 51.7922 8.09156C51.1285 7.44469 50.2828 7.28531 49.4485 7.43906V14.0681C50.6278 14.0681 51.5672 14.1684 52.3847 13.9444C54.8663 13.2638 55.74 11.1703 55.7325 9.07031H55.8713V14.2256H45.9994V14.0681H47.115V0.989062H44.7028V11.7984C44.43 12.8316 43.4306 14.5425 40.8703 14.5312C38.4891 14.52 36.1284 13.4475 36.1238 11.1187Z" fill="#555555"/>
</svg>
