<svg width="15" height="15" viewBox="0 0 15 15" fill="none" xmlns="http://www.w3.org/2000/svg">
<path d="M3.78405 9.16516C3.84208 8.99016 3.91213 8.80366 4.00569 8.65216C4.25085 8.15066 4.69415 7.74216 5.2315 7.52066C4.86854 7.37487 4.54797 7.14043 4.29912 6.83881C4.05027 6.53719 3.88109 6.17802 3.80706 5.79416C3.76053 5.65416 3.74902 5.50266 3.70199 5.35066C3.64395 5.10566 3.57391 4.86066 3.50386 4.62766C3.44532 4.45266 3.36377 4.26616 3.23518 4.12616C2.63979 3.47266 1.60111 3.42616 0.947676 4.02116C0.293745 4.61616 0.247214 5.64266 0.842607 6.30716C1.2859 6.79716 2.68682 7.04216 3.72551 7.49716C2.67481 7.95216 1.25088 8.22066 0.807584 8.69866C0.200183 9.37516 0.258722 10.4017 0.912653 10.9967C1.56608 11.6032 2.60477 11.5452 3.20016 10.8917C3.32875 10.7517 3.39879 10.5767 3.46884 10.3902C3.5619 10.1567 3.62044 9.90016 3.66697 9.66666C3.714 9.51516 3.73701 9.34016 3.78405 9.16516ZM14.1844 8.74516C13.7406 8.25516 12.3052 7.99866 11.266 7.54416C12.3167 7.08916 13.7056 6.84416 14.1494 6.35416C14.7448 5.70066 14.6977 4.66266 14.0443 4.06766C13.8904 3.91885 13.7079 3.80283 13.5078 3.72664C13.3077 3.65044 13.0942 3.61566 12.8803 3.62441C12.6663 3.63315 12.4564 3.68523 12.2632 3.7775C12.0699 3.86977 11.8975 4.00029 11.7563 4.16116C11.6277 4.30116 11.5577 4.47616 11.4876 4.66266C11.3946 4.89616 11.336 5.15266 11.2895 5.38566C11.2545 5.52566 11.231 5.67766 11.1844 5.82916C11.0328 6.61066 10.484 7.25216 9.76049 7.55566C10.293 7.77158 10.7287 8.17377 10.9863 8.68716C11.0794 8.86216 11.1614 9.02516 11.2074 9.20016C11.2545 9.37516 11.2895 9.55016 11.336 9.71366C11.3946 9.95866 11.4646 10.2037 11.5347 10.4367C11.5927 10.6117 11.6747 10.7982 11.8028 10.9382C12.3982 11.5917 13.4369 11.6382 14.0908 11.0432C14.7328 10.4367 14.7793 9.39816 14.1844 8.74516ZM10.8692 11.8252C10.7291 11.6967 10.554 11.6267 10.3674 11.5567C10.1337 11.4632 9.87706 11.4052 9.64341 11.3582C9.49181 11.3117 9.31669 11.2767 9.14158 11.2302C8.96646 11.1717 8.77984 11.1017 8.62824 11.0082C8.12591 10.7632 7.71764 10.3202 7.49599 9.78316C7.3501 10.1459 7.11552 10.4662 6.8137 10.7149C6.51188 10.9636 6.15246 11.1327 5.76835 11.2067C5.62826 11.2532 5.47666 11.2652 5.32456 11.3117C5.0794 11.3702 4.83424 11.4402 4.60108 11.5102C4.42597 11.5682 4.23935 11.6502 4.09925 11.7782C3.44532 12.3732 3.39879 13.3997 3.99418 14.0647C4.58958 14.7177 5.62826 14.7647 6.28169 14.1697C6.77202 13.7262 7.01718 12.3267 7.47248 11.2882C7.93929 12.3382 8.19595 13.7612 8.67477 14.1932C9.3282 14.7882 10.3674 14.7412 10.9628 14.0882C11.5932 13.4582 11.5462 12.4197 10.8692 11.8252ZM4.6241 3.53116C4.85775 3.62466 5.11442 3.68266 5.34808 3.72966C5.48817 3.76466 5.63977 3.78766 5.79137 3.83466C6.57388 3.98616 7.21581 4.53466 7.51901 5.25766C7.73507 4.72549 8.13752 4.29007 8.65125 4.03266C8.82637 3.93966 9.00148 3.85766 9.16509 3.81116C9.34021 3.76466 9.51532 3.72966 9.67843 3.68266C9.92359 3.62466 10.1688 3.55466 10.4024 3.48466C10.5775 3.42616 10.7641 3.34466 10.9042 3.21616C11.5577 2.62116 11.6047 1.59466 11.0093 0.929662C10.4019 0.253161 9.36322 0.206662 8.70979 0.825162C8.21947 1.26866 7.9628 2.70366 7.5075 3.73016C7.0522 2.68016 6.80704 1.29216 6.31672 0.848662C5.66379 0.253162 4.6241 0.300162 4.02921 0.953162C3.43382 1.60666 3.48035 2.64466 4.13428 3.23966C4.26236 3.39116 4.42597 3.47266 4.6246 3.53116H4.6241ZM9.3282 5.68916C9.00148 5.36266 8.46463 5.36266 8.12591 5.68916C7.89276 5.92266 7.62408 6.79716 7.48399 7.28716C7.3559 6.80916 7.08722 5.92216 6.84206 5.68916C6.51535 5.36266 5.97849 5.36266 5.63977 5.68916C5.31305 6.01566 5.31305 6.55216 5.63977 6.89066C5.87342 7.12416 6.7485 7.39216 7.23882 7.53216C6.76051 7.66066 5.87292 7.92866 5.63977 8.17366C5.31305 8.50016 5.31305 9.03716 5.63977 9.37516C5.96648 9.70216 6.50384 9.70216 6.84206 9.37516C7.07572 9.14216 7.34389 8.26716 7.48399 7.77716C7.61257 8.25566 7.88075 9.14216 8.12591 9.37516C8.45312 9.70216 8.98998 9.70216 9.3282 9.37516C9.65542 9.04866 9.65542 8.51216 9.3282 8.17366C9.09505 7.94066 8.21947 7.67216 7.72915 7.53216C8.20796 7.40366 9.09505 7.13566 9.3282 6.89066C9.65542 6.55216 9.65542 6.01566 9.3282 5.68916Z" fill="white"/>
</svg>
