<svg width="18" height="18" viewBox="0 0 18 18" fill="none" xmlns="http://www.w3.org/2000/svg">
<path d="M13.272 3.768C13.0174 3.768 12.7732 3.86914 12.5932 4.04918C12.4131 4.22921 12.312 4.47339 12.312 4.728C12.312 4.98261 12.4131 5.22679 12.5932 5.40682C12.7732 5.58686 13.0174 5.688 13.272 5.688C13.5266 5.688 13.7708 5.58686 13.9508 5.40682C14.1309 5.22679 14.232 4.98261 14.232 4.728C14.232 4.47339 14.1309 4.22921 13.9508 4.04918C13.7708 3.86914 13.5266 3.768 13.272 3.768ZM16.952 5.704C16.9364 5.04024 16.8121 4.38353 16.584 3.76C16.3806 3.22651 16.064 2.74342 15.656 2.344C15.2599 1.93394 14.7756 1.61934 14.24 1.424C13.6181 1.18893 12.9607 1.06177 12.296 1.048C11.448 1 11.176 1 9 1C6.824 1 6.552 1 5.704 1.048C5.03932 1.06177 4.38187 1.18893 3.76 1.424C3.22534 1.62132 2.74155 1.93565 2.344 2.344C1.93394 2.74014 1.61934 3.22435 1.424 3.76C1.18893 4.38187 1.06177 5.03932 1.048 5.704C1 6.552 1 6.824 1 9C1 11.176 1 11.448 1.048 12.296C1.06177 12.9607 1.18893 13.6181 1.424 14.24C1.619 14.776 1.934 15.26 2.344 15.656C2.742 16.064 3.225 16.379 3.76 16.576C4.38187 16.8111 5.03932 16.9382 5.704 16.952C6.552 17 6.824 17 9 17C11.176 17 11.448 17 12.296 16.952C12.9607 16.9382 13.6181 16.8111 14.24 16.576C14.7756 16.3807 15.2599 16.0661 15.656 15.656C16.066 15.258 16.383 14.775 16.584 14.24C16.812 13.617 16.936 12.96 16.952 12.296C16.952 11.448 17 11.176 17 9C17 6.824 17 6.552 16.952 5.704ZM15.512 12.2C15.5062 12.7078 15.4142 13.211 15.24 13.688C15.1123 14.0362 14.9071 14.3507 14.64 14.608C14.38 14.872 14.067 15.078 13.72 15.208C13.243 15.382 12.74 15.474 12.232 15.48C11.432 15.52 11.136 15.528 9.032 15.528C6.928 15.528 6.632 15.528 5.832 15.48C5.30471 15.4899 4.77967 15.4087 4.28 15.24C3.94863 15.1025 3.64908 14.8982 3.4 14.64C3.13447 14.383 2.93187 14.0682 2.808 13.72C2.61269 13.2361 2.50435 12.7216 2.488 12.2C2.488 11.4 2.44 11.104 2.44 9C2.44 6.896 2.44 6.6 2.488 5.8C2.492 5.28 2.586 4.766 2.768 4.28C2.90884 3.94233 3.12501 3.64133 3.4 3.4C3.643 3.125 3.943 2.906 4.28 2.76C4.76764 2.58403 5.2816 2.49206 5.8 2.488C6.6 2.488 6.896 2.44 9 2.44C11.104 2.44 11.4 2.44 12.2 2.488C12.7078 2.49382 13.211 2.5858 13.688 2.76C14.052 2.895 14.378 3.114 14.64 3.4C14.902 3.646 15.107 3.946 15.24 4.28C15.418 4.767 15.51 5.281 15.512 5.8C15.552 6.6 15.56 6.896 15.56 9C15.56 11.104 15.552 11.4 15.512 12.2ZM9 4.896C8.11985 4.89832 7.26377 5.18354 6.5581 5.70956C5.85243 6.23557 5.33456 6.97452 5.08093 7.81733C4.82729 8.66014 4.85133 9.56217 5.14949 10.3903C5.44766 11.2184 6.00415 11.9287 6.73683 12.4164C7.46951 12.9041 8.33957 13.1433 9.21859 13.0987C10.0976 13.0542 10.939 12.7282 11.6186 12.1689C12.2983 11.6096 12.7801 10.8467 12.993 9.99269C13.2059 9.13868 13.1386 8.23884 12.801 7.426C12.49 6.67471 11.9625 6.03295 11.2856 5.58241C10.6087 5.13186 9.81311 4.89292 9 4.896ZM9 11.664C8.2936 11.664 7.61612 11.3834 7.11662 10.8839C6.61712 10.3844 6.3365 9.7069 6.3365 9.0005C6.3365 8.2941 6.61712 7.61662 7.11662 7.11712C7.61612 6.61762 8.2936 6.337 9 6.337C9.7064 6.337 10.3839 6.61762 10.8834 7.11712C11.3829 7.61662 11.6635 8.2941 11.6635 9.0005C11.6635 9.7069 11.3829 10.3844 10.8834 10.8839C10.3839 11.3834 9.7064 11.664 9 11.664Z" fill="black" stroke="black"/>
</svg>
