<svg width="1040" height="15" viewBox="0 0 1040 15" fill="none" xmlns="http://www.w3.org/2000/svg">
<path d="M0 7H490V8H0V7Z" fill="black"/>
<path d="M526.652 1.7884C525.601 0.7372 523.873 0.7372 522.785 1.7884C522.034 2.5396 521.17 5.3556 520.721 6.9324C520.307 5.3924 519.444 2.5396 518.655 1.7884C517.604 0.7372 515.877 0.7372 514.789 1.7884C513.737 2.8396 513.737 4.5668 514.789 5.6556C515.539 6.406 518.355 7.27 519.932 7.7204C518.393 8.1332 515.54 8.9964 514.788 9.7852C513.737 10.8364 513.737 12.5636 514.788 13.6524C515.84 14.7036 517.566 14.7036 518.655 13.6524C519.406 12.9012 520.269 10.0852 520.72 8.5084C521.133 10.0484 521.997 12.9012 522.785 13.6524C523.836 14.7036 525.563 14.7036 526.652 13.6524C527.703 12.6012 527.703 10.874 526.652 9.7852C525.901 9.034 523.085 8.1708 521.508 7.7204C523.048 7.3076 525.901 6.4436 526.652 5.6556C527.703 4.5676 527.703 2.8396 526.652 1.7884Z" fill="black" stroke="black"/>
<path d="M550 7H1040V8H550V7Z" fill="black"/>
</svg>
