<svg width="14" height="18" viewBox="0 0 14 18" fill="none" xmlns="http://www.w3.org/2000/svg">
<path d="M7.218 1C2.83 1 0.5 3.81 0.5 6.875C0.5 8.295 1.294 10.068 2.565 10.63C2.928 10.793 2.88 10.594 3.192 9.4C3.20621 9.35194 3.2074 9.30097 3.19545 9.25231C3.1835 9.20364 3.15884 9.15902 3.124 9.123C1.307 7.02 2.77 2.699 6.958 2.699C13.021 2.699 11.888 11.088 8.013 11.088C7.014 11.088 6.27 10.304 6.506 9.334C6.791 8.178 7.35 6.936 7.35 6.104C7.35 4.004 4.223 4.316 4.223 7.097C4.223 7.957 4.527 8.537 4.527 8.537L3.334 13.359C3.018 14.645 3.377 16.726 3.408 16.905C3.428 17.004 3.538 17.035 3.6 16.954C3.7 16.824 4.916 15.089 5.256 13.834L5.889 11.524C6.224 12.13 7.191 12.637 8.221 12.637C11.285 12.637 13.5 9.943 13.5 6.601C13.49 3.397 10.747 1 7.218 1Z" fill="black" stroke="black"/>
</svg>
