<svg width="14" height="14" viewBox="0 0 14 14" fill="none" xmlns="http://www.w3.org/2000/svg">
<path d="M9.57129 9.572L13 13.0007M5.90929 0.999998C5.25982 0.992429 4.6153 1.11381 4.01307 1.35712C3.41085 1.60042 2.86289 1.96081 2.40094 2.41741C1.939 2.874 1.57225 3.41772 1.32194 4.01707C1.07164 4.61642 0.942749 5.25948 0.942749 5.909C0.942749 6.55851 1.07164 7.20158 1.32194 7.80092C1.57225 8.40027 1.939 8.94399 2.40094 9.40059C2.86289 9.85718 3.41085 10.2176 4.01307 10.4609C4.6153 10.7042 5.25982 10.8256 5.90929 10.818C7.20133 10.8029 8.43534 10.2791 9.34367 9.36014C10.252 8.44116 10.7614 7.20112 10.7614 5.909C10.7614 4.61687 10.252 3.37684 9.34367 2.45786C8.43534 1.53888 7.20133 1.01505 5.90929 0.999998Z" stroke="black"/>
</svg>
