<svg width="14" height="16" viewBox="0 0 14 16" fill="none" xmlns="http://www.w3.org/2000/svg">
<path d="M11.506 3.994C11.4123 3.94529 11.3212 3.89189 11.233 3.834C10.9763 3.66219 10.7413 3.46006 10.533 3.232C10.123 2.76708 9.84995 2.19769 9.74395 1.587H9.74695C9.68695 1.23 9.71195 1 9.71595 1H7.33795V10.297C7.33795 10.422 7.33795 10.545 7.33295 10.667C7.33295 10.683 7.33095 10.697 7.32995 10.713L7.32895 10.733V10.739C7.30395 11.072 7.19795 11.395 7.02095 11.677C6.84439 11.9589 6.60126 12.1931 6.31295 12.359C6.01295 12.532 5.67395 12.622 5.32895 12.622C4.22095 12.622 3.32295 11.708 3.32295 10.58C3.32295 9.452 4.22095 8.539 5.32895 8.539C5.53895 8.539 5.74695 8.572 5.94695 8.637L5.94995 6.19C5.34369 6.11035 4.72745 6.15883 4.1411 6.33229C3.55474 6.50575 3.01131 6.80034 2.54595 7.197C2.13595 7.557 1.79195 7.987 1.52795 8.467C1.42795 8.642 1.04795 9.345 1.00295 10.487C0.973952 11.134 1.16595 11.805 1.25795 12.082V12.088C1.31595 12.252 1.53895 12.808 1.90395 13.278C2.19695 13.656 2.54395 13.987 2.93395 14.261V14.255L2.93895 14.261C4.09095 15.052 5.36695 15.001 5.36695 15.001C5.58695 14.991 6.32795 15.001 7.16795 14.597C7.72638 14.3305 8.22428 13.9524 8.63095 13.486C8.97095 13.088 9.23995 12.636 9.42895 12.146C9.60306 11.6532 9.69987 11.1364 9.71595 10.614V5.681C9.74495 5.698 10.129 5.955 10.129 5.955C10.129 5.955 10.682 6.314 11.546 6.548C12.166 6.714 13 6.748 13 6.748V4.363C12.707 4.395 12.114 4.301 11.506 3.994Z" fill="black" stroke="black"/>
</svg>
