<svg width="18" height="15" viewBox="0 0 18 15" fill="none" xmlns="http://www.w3.org/2000/svg">
<path fill-rule="evenodd" clip-rule="evenodd" d="M14.465 4.235C14.471 4.378 14.473 4.521 14.473 4.665C14.473 8.997 11.378 14 5.718 14C4.03238 13.9966 2.38739 13.4823 1 12.525C1.24 12.551 1.485 12.571 1.734 12.571C3.175 12.571 4.503 12.044 5.556 11.161C4.21 11.141 3.073 10.186 2.681 8.887C3.14236 8.98266 3.62021 8.96274 4.072 8.829C2.663 8.529 1.602 7.204 1.602 5.613V5.573C2.017 5.814 2.492 5.963 2.997 5.983C2.17 5.392 1.627 4.385 1.627 3.248C1.627 2.65 1.778 2.085 2.044 1.598C3.562 3.586 5.83 4.892 8.387 5.028C8.33411 4.78253 8.30762 4.5321 8.308 4.281C8.308 2.468 9.686 1 11.386 1C12.271 1 13.07 1.396 13.631 2.033C14.3258 1.88996 14.9887 1.62122 15.587 1.24C15.3676 1.98737 14.8866 2.63088 14.232 3.053C14.8448 2.97658 15.4415 2.80343 16 2.54C15.5924 3.19114 15.0727 3.765 14.465 4.235Z" fill="black" stroke="black"/>
</svg>
