<svg width="16" height="12" viewBox="0 0 16 12" fill="none" xmlns="http://www.w3.org/2000/svg">
<path fill-rule="evenodd" clip-rule="evenodd" d="M13.869 0.905008C14.1855 0.990905 14.4741 1.15811 14.706 1.39002C14.9379 1.62194 15.1051 1.91048 15.191 2.22701C15.512 3.40001 15.5 5.84701 15.5 5.84701C15.5 5.84701 15.5 8.28101 15.191 9.45501C15.1051 9.77153 14.9379 10.0601 14.706 10.292C14.4741 10.5239 14.1855 10.6911 13.869 10.777C12.695 11.086 8 11.086 8 11.086C8 11.086 3.317 11.086 2.131 10.764C1.81448 10.6781 1.52593 10.5109 1.29402 10.279C1.0621 10.0471 0.894897 9.75853 0.809 9.44201C0.5 8.28101 0.5 5.83501 0.5 5.83501C0.5 5.83501 0.5 3.40001 0.809 2.22701C0.896251 1.90989 1.06358 1.62055 1.29492 1.38676C1.52626 1.15297 1.81382 0.982597 2.13 0.892008C3.305 0.583008 8 0.583008 8 0.583008C8 0.583008 12.695 0.583008 13.869 0.905008ZM10.409 5.74901L6.505 7.99701V3.50001L10.409 5.74901Z" fill="black" stroke="black"/>
</svg>
